<svg xmlns="http://www.w3.org/2000/svg" viewBox="0 0 60 40"><path fill="#fff" d="M0 0h60v40H0z"/><g transform="rotate(33.69 30 20)"><circle cx="30" cy="20" r="10" fill="#cd2e3a"/><path d="M20 20a10 10 0 0 0 20 0a5 5 0 0 0-10 0a5 5 0 0 1-10 0" fill="#0047a0"/></g><g fill="#111" transform="translate(13 9) rotate(-56.31)"><path d="M-5 -4h10v2H-5z"/><path d="M-5 -1h10v2H-5z"/><path d="M-5 2h10v2H-5z"/></g><g fill="#111" transform="translate(47 31) rotate(-56.31)"><path d="M-5 -4h4.3v2H-5zM.7 -4H5v2H.7z"/><path d="M-5 -1h4.3v2H-5zM.7 -1H5v2H.7z"/><path d="M-5 2h4.3v2H-5zM.7 2H5v2H.7z"/></g><g fill="#111" transform="translate(47 9) rotate(56.31)"><path d="M-5 -4h10v2H-5z"/><path d="M-5 -1h4.3v2H-5zM.7 -1H5v2H.7z"/><path d="M-5 2h10v2H-5z"/></g><g fill="#111" transform="translate(13 31) rotate(56.31)"><path d="M-5 -4h4.3v2H-5zM.7 -4H5v2H.7z"/><path d="M-5 -1h10v2H-5z"/><path d="M-5 2h4.3v2H-5zM.7 2H5v2H.7z"/></g></svg>
